<svg width="24" height="24" viewBox="0 0 24 24" fill="none" xmlns="http://www.w3.org/2000/svg">
<g id="name=alert, size=24*24">
<mask id="mask0_118_782" style="mask-type:alpha" maskUnits="userSpaceOnUse" x="0" y="0" width="24" height="24">
<rect id="Bounding box" width="24" height="24" fill="#D9D9D9"/>
</mask>
<g mask="url(#mask0_118_782)">
<path id="warning" d="M3.42552 20.5001C3.25602 20.5001 3.10377 20.4586 2.96877 20.3758C2.83377 20.293 2.72885 20.1837 2.65402 20.0481C2.57602 19.9134 2.5331 19.7676 2.52527 19.6106C2.51744 19.4536 2.55977 19.2981 2.65227 19.1441L11.213 4.35605C11.3057 4.20205 11.4215 4.08822 11.5605 4.01455C11.6997 3.94089 11.8462 3.90405 12 3.90405C12.1539 3.90405 12.3004 3.94089 12.4395 4.01455C12.5785 4.08822 12.6944 4.20205 12.787 4.35605L21.3478 19.1441C21.4403 19.2981 21.4826 19.4536 21.4748 19.6106C21.4669 19.7676 21.424 19.9134 21.346 20.0481C21.2712 20.1837 21.1663 20.293 21.0313 20.3758C20.8963 20.4586 20.744 20.5001 20.5745 20.5001H3.42552ZM12 17.8078C12.2289 17.8078 12.4207 17.7304 12.5755 17.5756C12.7304 17.4207 12.8078 17.2289 12.8078 17.0001C12.8078 16.7712 12.7304 16.5794 12.5755 16.4246C12.4207 16.2697 12.2289 16.1923 12 16.1923C11.7712 16.1923 11.5794 16.2697 11.4245 16.4246C11.2697 16.5794 11.1923 16.7712 11.1923 17.0001C11.1923 17.2289 11.2697 17.4207 11.4245 17.5756C11.5794 17.7304 11.7712 17.8078 12 17.8078ZM12.0003 15.1923C12.2129 15.1923 12.391 15.1205 12.5345 14.9768C12.6782 14.833 12.75 14.6548 12.75 14.4423V10.9423C12.75 10.7298 12.6781 10.5517 12.5343 10.4081C12.3904 10.2642 12.2123 10.1923 11.9998 10.1923C11.7871 10.1923 11.609 10.2642 11.4655 10.4081C11.3219 10.5517 11.25 10.7298 11.25 10.9423V14.4423C11.25 14.6548 11.3219 14.833 11.4658 14.9768C11.6096 15.1205 11.7878 15.1923 12.0003 15.1923Z" fill="#D31212"/>
</g>
</g>
</svg>
