<svg width="20" height="20" viewBox="0 0 20 20" fill="none" xmlns="http://www.w3.org/2000/svg">
<g id="name=forwardTab, size=20*20">
<mask id="mask0_118_908" style="mask-type:alpha" maskUnits="userSpaceOnUse" x="0" y="0" width="20" height="20">
<rect id="Bounding box" width="20" height="20" fill="#D9D9D9"/>
</mask>
<g mask="url(#mask0_118_908)">
<path id="chevron_forward" d="M10.875 9.99996L7.45835 6.58329C7.30558 6.43051 7.22919 6.25343 7.22919 6.05204C7.22919 5.85065 7.30558 5.67357 7.45835 5.52079C7.61113 5.36801 7.78821 5.29163 7.9896 5.29163C8.19099 5.29163 8.37044 5.37038 8.52794 5.52788L12.4792 9.47913C12.5486 9.55413 12.6007 9.63538 12.6354 9.72288C12.6702 9.81038 12.6875 9.90413 12.6875 10.0041C12.6875 10.1041 12.6702 10.1979 12.6354 10.2854C12.6007 10.3729 12.5486 10.4513 12.4792 10.5208L8.52794 14.472C8.37044 14.6295 8.19446 14.7048 8.00002 14.6979C7.80558 14.6909 7.63196 14.6111 7.47919 14.4583C7.32641 14.3055 7.25002 14.1284 7.25002 13.927C7.25002 13.7257 7.32641 13.5486 7.47919 13.3958L10.875 9.99996Z" fill="#343434"/>
</g>
</g>
</svg>
