<svg width="24" height="24" viewBox="0 0 24 24" fill="none" xmlns="http://www.w3.org/2000/svg">
<g id="name=intergration, size=24*24">
<mask id="mask0_118_840" style="mask-type:alpha" maskUnits="userSpaceOnUse" x="0" y="0" width="24" height="24">
<rect id="Bounding box" width="24" height="24" fill="#D9D9D9"/>
</mask>
<g mask="url(#mask0_118_840)">
<path id="cell_merge" d="M4 9C3.71667 9 3.47917 8.90417 3.2875 8.7125C3.09583 8.52083 3 8.28333 3 8V5C3 4.45 3.19583 3.97917 3.5875 3.5875C3.97917 3.19583 4.45 3 5 3H8C8.28333 3 8.52083 3.09583 8.7125 3.2875C8.90417 3.47917 9 3.71667 9 4C9 4.28333 8.90417 4.52083 8.7125 4.7125C8.52083 4.90417 8.28333 5 8 5H5V8C5 8.28333 4.90417 8.52083 4.7125 8.7125C4.52083 8.90417 4.28333 9 4 9ZM20 9C19.7167 9 19.4792 8.90417 19.2875 8.7125C19.0958 8.52083 19 8.28333 19 8V5H16C15.7167 5 15.4792 4.90417 15.2875 4.7125C15.0958 4.52083 15 4.28333 15 4C15 3.71667 15.0958 3.47917 15.2875 3.2875C15.4792 3.09583 15.7167 3 16 3H19C19.55 3 20.0208 3.19583 20.4125 3.5875C20.8042 3.97917 21 4.45 21 5V8C21 8.28333 20.9042 8.52083 20.7125 8.7125C20.5208 8.90417 20.2833 9 20 9ZM16.125 15.125L13.7 12.7C13.5 12.5 13.4 12.2667 13.4 12C13.4 11.7333 13.5 11.5 13.7 11.3L16.125 8.875C16.325 8.675 16.5625 8.575 16.8375 8.575C17.1125 8.575 17.35 8.675 17.55 8.875C17.75 9.075 17.85 9.3125 17.85 9.5875C17.85 9.8625 17.75 10.1 17.55 10.3L16.825 11H21C21.2833 11 21.5208 11.0958 21.7125 11.2875C21.9042 11.4792 22 11.7167 22 12C22 12.2833 21.9042 12.5208 21.7125 12.7125C21.5208 12.9042 21.2833 13 21 13H16.825L17.55 13.7C17.75 13.9 17.85 14.1375 17.85 14.4125C17.85 14.6875 17.75 14.925 17.55 15.125C17.35 15.325 17.1125 15.425 16.8375 15.425C16.5625 15.425 16.325 15.325 16.125 15.125ZM6.475 15.125C6.275 14.925 6.17083 14.6875 6.1625 14.4125C6.15417 14.1375 6.25 13.9 6.45 13.7L7.175 13H3C2.71667 13 2.47917 12.9042 2.2875 12.7125C2.09583 12.5208 2 12.2833 2 12C2 11.7167 2.09583 11.4792 2.2875 11.2875C2.47917 11.0958 2.71667 11 3 11H7.175L6.45 10.3C6.25 10.1 6.15417 9.8625 6.1625 9.5875C6.17083 9.3125 6.275 9.075 6.475 8.875C6.675 8.675 6.90833 8.575 7.175 8.575C7.44167 8.575 7.675 8.675 7.875 8.875L10.3 11.3C10.5 11.5 10.6 11.7333 10.6 12C10.6 12.2667 10.5 12.5 10.3 12.7L7.875 15.125C7.675 15.325 7.44167 15.425 7.175 15.425C6.90833 15.425 6.675 15.325 6.475 15.125ZM5 21C4.45 21 3.97917 20.8042 3.5875 20.4125C3.19583 20.0208 3 19.55 3 19V16C3 15.7167 3.09583 15.4792 3.2875 15.2875C3.47917 15.0958 3.71667 15 4 15C4.28333 15 4.52083 15.0958 4.7125 15.2875C4.90417 15.4792 5 15.7167 5 16V19H8C8.28333 19 8.52083 19.0958 8.7125 19.2875C8.90417 19.4792 9 19.7167 9 20C9 20.2833 8.90417 20.5208 8.7125 20.7125C8.52083 20.9042 8.28333 21 8 21H5ZM16 21C15.7167 21 15.4792 20.9042 15.2875 20.7125C15.0958 20.5208 15 20.2833 15 20C15 19.7167 15.0958 19.4792 15.2875 19.2875C15.4792 19.0958 15.7167 19 16 19H19V16C19 15.7167 19.0958 15.4792 19.2875 15.2875C19.4792 15.0958 19.7167 15 20 15C20.2833 15 20.5208 15.0958 20.7125 15.2875C20.9042 15.4792 21 15.7167 21 16V19C21 19.55 20.8042 20.0208 20.4125 20.4125C20.0208 20.8042 19.55 21 19 21H16Z" fill="#343434"/>
</g>
</g>
</svg>
