<svg width="22" height="22" viewBox="0 0 22 22" fill="none" xmlns="http://www.w3.org/2000/svg">
<g id="Group">
<g id="Group_2">
<g id="Group_3">
<g id="Group_4">
<path id="Vector" d="M10.7534 0C4.82372 0 0 4.89303 0 10.9079C0 16.9228 4.82372 21.814 10.7534 21.814C16.6831 21.814 21.5068 16.921 21.5068 10.9079C21.505 4.89303 16.6813 0 10.7534 0ZM10.7534 19.6577C5.99755 19.6577 2.12757 15.7321 2.12757 10.9079C2.12757 6.08373 5.99755 2.15814 10.7534 2.15814C15.5093 2.15814 19.3793 6.08373 19.3793 10.9079C19.3793 15.7321 15.5093 19.6577 10.7534 19.6577Z" fill="#525252"/>
</g>
</g>
<g id="Group_5">
<path id="Vector_2" d="M15.4695 8.5116C13.9031 10.4465 12.8613 10.7535 12.1809 10.7535C11.8397 10.7535 11.5903 10.6493 11.4362 10.56C11.3647 10.5172 11.2987 10.4651 11.24 10.4056C11.1648 10.3311 11.1006 10.2493 11.0511 10.1563C10.9612 9.98881 10.8695 9.73021 10.8768 9.3823C10.8952 8.69765 11.2088 7.65578 13.0833 6.09299C13.4996 5.7488 13.7142 5.45671 13.7014 4.91159C13.694 4.58415 13.5271 4.28648 13.2557 4.09485C13.0576 3.95903 12.8247 3.88647 12.5862 3.88647C12.1424 3.88647 11.6875 4.12461 11.2308 4.59159C9.53609 6.30694 8.95285 8.02974 9.53793 9.58881C9.5471 9.61114 9.5416 9.63718 9.52509 9.65393C9.50858 9.67067 9.4829 9.67625 9.4609 9.66695C9.07573 9.51625 8.67773 9.43997 8.27973 9.43997C7.07838 9.43997 5.78166 10.1097 4.53263 11.3767C3.50186 12.4223 3.85768 13.1739 4.05943 13.4474C4.23917 13.6986 4.56198 13.8586 4.90496 13.8549C5.47537 13.8493 5.70463 13.6446 6.01093 13.2651C7.57909 11.3284 8.65572 10.986 9.33618 10.986C9.65898 10.986 9.90292 11.079 10.0607 11.1665C10.1505 11.2167 10.2312 11.2818 10.3028 11.3544C10.3541 11.4083 10.4 11.466 10.4385 11.5293C10.5357 11.6911 10.6549 11.9665 10.6457 12.3535C10.6311 13.0381 10.2826 14.1172 8.40261 15.6837C7.90557 16.0967 7.79552 16.4093 7.79919 16.7963C7.80102 17.1274 7.94775 17.4418 8.2082 17.6595C8.42095 17.8363 8.65755 17.9237 8.91066 17.9237C9.32884 17.9237 9.76903 17.6819 10.2587 17.1851C11.9498 15.466 12.5294 13.7395 11.9406 12.1823C11.9314 12.16 11.9369 12.1339 11.9535 12.1153C11.97 12.0986 11.9956 12.093 12.0195 12.1023C12.4102 12.2549 12.8082 12.3311 13.2043 12.3311C14.4222 12.3311 15.6822 11.6781 16.9514 10.3925C17.7181 9.61114 17.8703 8.95625 17.4301 8.32927C17.2357 8.0502 16.9294 7.90509 16.5883 7.88834C16.0949 7.86974 15.7941 8.11346 15.4695 8.5116Z" fill="#525252"/>
</g>
</g>
</g>
</svg>
