<svg width="82" height="19" viewBox="0 0 82 19" fill="none" xmlns="http://www.w3.org/2000/svg">
<g id="Group">
<path id="Vector" d="M11.8813 13.0074C12.3765 12.3023 12.6278 11.4595 12.6278 10.5051C12.6278 9.96741 12.5508 9.48927 12.3985 9.08369C12.2463 8.67624 12.0299 8.31532 11.7584 8.01206C11.4888 7.71066 11.1532 7.4502 10.7662 7.23624C10.3865 7.02787 9.96099 6.84368 9.50246 6.6874C9.04577 6.53299 8.2626 6.33764 7.17497 6.1088C6.30194 5.92833 5.66366 5.75159 5.27483 5.58229C4.90618 5.42042 4.62922 5.22694 4.45315 5.00554C4.28258 4.79159 4.20004 4.53484 4.20004 4.2167C4.20004 3.72368 4.40913 3.34228 4.84198 3.04833C5.29317 2.74135 5.90577 2.58693 6.66509 2.58693C7.64267 2.58693 8.53405 2.71902 9.31355 2.97763C10.0912 3.23623 10.7533 3.57298 11.2779 3.9767L11.3311 4.01763H11.9162V1.13018L11.7896 1.07995C10.1426 0.425065 8.39649 0.092041 6.59906 0.092041C5.5793 0.092041 4.62189 0.283669 3.75435 0.661345C2.87764 1.04274 2.18068 1.58786 1.68364 2.27809C1.18109 2.97577 0.926147 3.75903 0.926147 4.60554C0.926147 5.36461 1.09305 6.0288 1.42136 6.57578C1.74783 7.12089 2.23937 7.58601 2.87948 7.95811C3.50675 8.32276 4.41647 8.65578 5.58296 8.95159C6.99523 9.31067 7.91779 9.57857 8.32496 9.75346C8.71196 9.91904 8.98891 10.0976 9.15032 10.2874C9.30071 10.4642 9.37408 10.6874 9.37408 10.9721C9.37408 11.5302 9.16499 11.9488 8.7358 12.2521C8.28828 12.5665 7.61149 12.7265 6.72195 12.7265C5.81223 12.7265 4.8915 12.5758 3.98361 12.2781C3.0794 11.9823 2.27422 11.5581 1.59376 11.0223L1.54058 10.9795H0.935319V14.0288L1.04903 14.0828C1.87438 14.4753 2.7566 14.7674 3.66815 14.9479C4.57787 15.1284 5.59764 15.2195 6.70177 15.2195C7.83342 15.2195 8.86419 15.026 9.76474 14.6465C10.6763 14.2614 11.3879 13.7107 11.8813 13.0074Z" fill="#525252"/>
<path id="Vector_2" d="M21.657 15.0169C22.3484 14.881 23.0821 14.6466 23.8377 14.3173L23.9588 14.2652V11.802H23.4012L23.348 11.8429C22.9225 12.1703 22.3723 12.442 21.712 12.6503C21.048 12.8606 20.4299 12.9666 19.8742 12.9666C18.8581 12.9666 18.0456 12.6876 17.4587 12.1369C16.9176 11.6289 16.6131 10.9331 16.5544 10.0662H24.166V8.73964C24.166 7.11545 23.7258 5.83358 22.8583 4.9294C21.9889 4.02521 20.7454 3.56567 19.1607 3.56567C17.4275 3.56567 16.0207 4.10521 14.9789 5.17126C13.939 6.23545 13.4108 7.68661 13.4108 9.48382C13.4108 11.2643 13.9555 12.682 15.0303 13.6959C16.1014 14.7062 17.5889 15.2196 19.4505 15.2196C20.2245 15.2196 20.9655 15.1508 21.657 15.0169ZM16.582 8.01219C16.659 7.38708 16.8901 6.86987 17.2716 6.47545C17.6989 6.03452 18.2565 5.82056 18.9791 5.82056C19.6413 5.82056 20.1365 6.01777 20.496 6.42707C20.8243 6.79917 21.0095 7.33312 21.0499 8.01405H16.582V8.01219Z" fill="#525252"/>
<path id="Vector_3" d="M26.5794 13.6959C27.6506 14.7062 29.138 15.2196 30.9997 15.2196C31.7736 15.2196 32.5165 15.1508 33.2061 15.015C33.8976 14.8792 34.6312 14.6448 35.3869 14.3155L35.5079 14.2634V11.802H34.9503L34.8971 11.8429C34.4716 12.1703 33.9214 12.442 33.2611 12.6503C32.5972 12.8606 31.9791 12.9666 31.4233 12.9666C30.4072 12.9666 29.5947 12.6876 29.0078 12.1369C28.4667 11.6289 28.1623 10.9331 28.1036 10.0662H35.7152V8.73964C35.7152 7.11545 35.275 5.83358 34.4074 4.9294C33.5381 4.02521 32.2945 3.56567 30.7099 3.56567C28.9748 3.56567 27.568 4.10521 26.5281 5.17126C25.4881 6.23731 24.9599 7.68661 24.9599 9.48382C24.9581 11.2643 25.5028 12.682 26.5794 13.6959ZM28.1311 8.01219C28.2081 7.38708 28.4392 6.86987 28.8207 6.47545C29.2462 6.03452 29.8056 5.82056 30.5283 5.82056C31.1904 5.82056 31.6856 6.01777 32.0451 6.42707C32.3734 6.79917 32.5586 7.33312 32.599 8.01405H28.1311V8.01219Z" fill="#525252"/>
<path id="Vector_4" d="M40.8217 14.7915C41.4563 14.7915 42.0689 14.6892 42.6411 14.4902C43.1051 14.3283 43.571 14.0734 44.0295 13.7329V13.9878C44.0295 15.7274 43.2702 16.5739 41.7075 16.5739C40.9409 16.5739 40.2513 16.5106 39.6588 16.3878C39.0682 16.2632 38.595 16.1218 38.2521 15.9636L38.2135 15.945H37.634V18.4771L37.7825 18.5162C38.9784 18.8381 40.2127 18.9999 41.4453 18.9999C43.3344 18.9999 44.765 18.5367 45.6986 17.6213C46.634 16.7041 47.109 15.2995 47.109 13.4446V3.8706H44.2038L44.1084 4.27432C43.7031 4.0399 43.3014 3.86315 42.9089 3.74967C42.4412 3.61385 41.9093 3.54688 41.3297 3.54688C40.442 3.54688 39.613 3.7999 38.8683 4.29664C38.1255 4.79153 37.5386 5.4892 37.1241 6.36735C36.7114 7.23991 36.5023 8.24084 36.5023 9.34038C36.5023 11.0408 36.8838 12.3841 37.6376 13.3367C38.4006 14.3022 39.4718 14.7915 40.8217 14.7915ZM40.3723 6.93479C40.8253 6.37665 41.4306 6.10688 42.2229 6.10688C42.9016 6.10688 43.483 6.25386 43.9525 6.54037V11.4613C43.2244 12.079 42.4815 12.3934 41.7424 12.3934C40.3558 12.3934 39.6827 11.3943 39.6827 9.34038C39.6845 8.30596 39.9156 7.49665 40.3723 6.93479Z" fill="#525252"/>
<path id="Vector_5" d="M53.8765 3.56567C52.1414 3.56567 50.7347 4.10521 49.6948 5.17126C48.6548 6.23731 48.1266 7.68661 48.1266 9.48382C48.1266 11.2643 48.6713 12.682 49.7461 13.6959C50.8172 14.7062 52.3047 15.2196 54.1663 15.2196C54.9403 15.2196 55.6831 15.1508 56.3727 15.015C57.0642 14.8792 57.7978 14.6448 58.5535 14.3155L58.6745 14.2634V11.802H58.117L58.0638 11.8429C57.6383 12.1703 57.088 12.442 56.4278 12.6503C55.7638 12.8606 55.1457 12.9666 54.59 12.9666C53.5739 12.9666 52.7614 12.6876 52.1745 12.1369C51.6334 11.6289 51.3289 10.9331 51.2702 10.0662H58.8818V8.73964C58.8818 7.11545 58.4416 5.83358 57.5741 4.9294C56.7065 4.02521 55.4612 3.56567 53.8765 3.56567ZM53.6986 5.82056C54.3607 5.82056 54.8559 6.01777 55.2154 6.42707C55.5437 6.79917 55.729 7.33312 55.7693 8.01405H51.3014C51.3785 7.38894 51.6096 6.87173 51.9911 6.47731C52.4166 6.03452 52.976 5.82056 53.6986 5.82056Z" fill="#525252"/>
<path id="Vector_6" d="M66.3011 3.57483C65.6609 3.57483 64.9988 3.72739 64.3294 4.02692C63.825 4.25204 63.383 4.52925 63.0088 4.85483V3.8725H59.856V14.9646H63.0088V7.20647C63.2637 6.97205 63.5976 6.77298 64.0011 6.61484C64.4394 6.44367 64.8649 6.35623 65.2648 6.35623C65.8499 6.35623 66.2589 6.52925 66.5156 6.8846C66.7834 7.25484 66.9191 7.9153 66.9191 8.84554V14.9646H70.083V7.67158C70.083 6.37856 69.751 5.36274 69.0981 4.65204C68.4433 3.93762 67.5006 3.57483 66.3011 3.57483Z" fill="#525252"/>
<path id="Vector_7" d="M81.7058 8.73964C81.7058 7.11545 81.2656 5.83358 80.3981 4.9294C79.5287 4.02521 78.2852 3.56567 76.7005 3.56567C74.9673 3.56567 73.5587 4.10521 72.5187 5.17126C71.4788 6.23731 70.9506 7.68661 70.9506 9.48382C70.9506 11.2643 71.4953 12.682 72.5701 13.6959C73.6412 14.7062 75.1287 15.2196 76.9903 15.2196C77.7643 15.2196 78.5071 15.1508 79.1967 15.015C79.8882 14.8792 80.6219 14.6448 81.3775 14.3155L81.4986 14.2634V11.802H80.941L80.8878 11.8429C80.4623 12.1703 79.9121 12.442 79.2518 12.6503C78.5878 12.8606 77.9697 12.9666 77.414 12.9666C76.3979 12.9666 75.5854 12.6876 74.9985 12.1369C74.4574 11.6289 74.1529 10.9331 74.0942 10.0662H81.7058V8.73964ZM76.5208 5.82056C77.1829 5.82056 77.6781 6.01777 78.0376 6.42707C78.3659 6.79917 78.5511 7.33312 78.5915 8.01405H74.1236C74.2006 7.38894 74.4317 6.87173 74.8132 6.47731C75.2406 6.03452 75.7981 5.82056 76.5208 5.82056Z" fill="#525252"/>
</g>
</svg>
