<svg width="24" height="24" viewBox="0 0 24 24" fill="none" xmlns="http://www.w3.org/2000/svg">
<g id="name=minimize, size=24*24">
<mask id="mask0_118_775" style="mask-type:alpha" maskUnits="userSpaceOnUse" x="0" y="0" width="24" height="24">
<rect id="Bounding box" width="24" height="24" fill="#D9D9D9"/>
</mask>
<g mask="url(#mask0_118_775)">
<path id="minimize" d="M7 21C6.71667 21 6.47917 20.9042 6.2875 20.7125C6.09583 20.5208 6 20.2833 6 20C6 19.7167 6.09583 19.4792 6.2875 19.2875C6.47917 19.0958 6.71667 19 7 19H17C17.2833 19 17.5208 19.0958 17.7125 19.2875C17.9042 19.4792 18 19.7167 18 20C18 20.2833 17.9042 20.5208 17.7125 20.7125C17.5208 20.9042 17.2833 21 17 21H7Z" fill="#343434"/>
</g>
</g>
</svg>
