<svg width="20" height="20" viewBox="0 0 20 20" fill="none" xmlns="http://www.w3.org/2000/svg">
<g id="name=up, size=20*20">
<mask id="mask0_125_692" style="mask-type:alpha" maskUnits="userSpaceOnUse" x="0" y="0" width="20" height="20">
<rect id="Bounding box" width="20" height="20" fill="#D9D9D9"/>
</mask>
<g mask="url(#mask0_125_692)">
<path id="keyboard_arrow_up" d="M10 9.06246L6.58335 12.4791C6.43058 12.6319 6.25349 12.7083 6.0521 12.7083C5.85071 12.7083 5.67363 12.6319 5.52085 12.4791C5.36808 12.3263 5.29169 12.1493 5.29169 11.9479C5.29169 11.7465 5.36808 11.5694 5.52085 11.4166L9.47919 7.45829C9.63196 7.30551 9.80558 7.22913 10 7.22913C10.1945 7.22913 10.3681 7.30551 10.5209 7.45829L14.4792 11.4166C14.632 11.5694 14.7084 11.743 14.7084 11.9375C14.7084 12.1319 14.632 12.3055 14.4792 12.4583C14.3264 12.6111 14.1493 12.6875 13.9479 12.6875C13.7465 12.6875 13.5695 12.6111 13.4167 12.4583L10 9.06246Z" fill="#343434"/>
</g>
</g>
</svg>
